<svg width="512" height="512" viewBox="0 0 512 512" xml:space="preserve" xmlns="http://www.w3.org/2000/svg">
  <path style="stroke-width:8.96877" d="M91.742 87.428c-10.054 0-17.301.582-21.75 1.748-6.547 1.874-11.928 4.592-16.135 8.162-4.215 3.57-7.758 8.333-10.619 14.297-2.86 5.964-4.825 13.865-5.875 23.685-.583 6.198-.932 19.06-1.049 38.594-.116 19.525-1.111 33.327-2.986 41.38-1.865 8.064-5.642 14.44-11.31 19.06C16.34 238.98 9.005 241.376 0 241.609v28.592c9.005.242 16.342 2.69 22.01 7.363 5.668 4.682 9.443 11.06 11.308 19.123 1.875 8.072 2.87 22.627 2.987 43.686.116 21.04.907 36.181 2.369 45.428 1.462 9.247 4.645 16.897 9.56 22.924 4.915 6.027 11.103 10.35 18.592 13.04 5.14 1.875 13.444 2.807 24.906 2.807h9.83V397.04h-5.435c-11.112 0-18.564-1.57-22.367-4.736-3.803-3.148-6.171-8.709-7.104-16.664-.466-4.323-.699-17.893-.699-40.692 0-25.148-2.907-43.22-8.691-54.27-5.785-11.049-15.103-19.292-27.973-24.673 10.88-5.265 18.86-11.283 23.945-18.072 5.086-6.79 8.683-16.43 10.782-28.932 1.291-8.063 1.937-27.418 1.937-58.064 0-15.211 1.99-25.007 5.973-29.383 3.973-4.386 12.045-6.582 24.207-6.582h5.435V87.428h-9.83zm101.58 0c-10.063 0-17.318.582-21.758 1.748-6.556 1.874-11.929 4.592-16.144 8.162-4.206 3.57-7.748 8.333-10.61 14.297-2.86 5.964-4.825 13.865-5.874 23.685-.583 6.198-.933 19.06-1.05 38.594-.125 19.525-1.113 33.327-2.988 41.38-1.874 8.064-5.64 14.44-11.318 19.06-5.666 4.626-12.999 7.021-22 7.255v28.592c9.005.233 16.342 2.69 22.01 7.363 5.677 4.682 9.444 11.06 11.318 19.123 1.875 8.072 2.861 22.627 2.987 43.686.116 21.04.905 36.181 2.367 45.428s4.647 16.897 9.552 22.924c4.915 6.027 11.113 10.35 18.602 13.04 5.14 1.875 13.444 2.807 24.906 2.807h9.82V397.04h-5.435c-11.103 0-18.557-1.57-22.36-4.736-3.802-3.148-6.17-8.709-7.103-16.664-.475-4.323-.707-17.893-.707-40.692 0-25.148-2.897-43.22-8.682-54.27-5.784-11.049-15.112-19.292-27.982-24.673 10.88-5.265 18.869-11.292 23.945-18.072 5.086-6.79 8.69-16.43 10.79-28.932 1.29-8.063 1.93-27.418 1.93-58.064 0-15.203 1.989-24.998 5.962-29.383 3.973-4.386 12.054-6.582 24.207-6.582h5.436V87.428h-9.82zm115.535 0v27.533h5.436c11.103 0 18.566 1.553 22.36 4.656 3.793 3.103 6.107 8.564 6.923 16.403.592 4.448.887 18.073.887 40.88 0 25.14 2.744 43.023 8.242 53.606 5.489 10.583 14.97 19.058 28.414 25.498-10.278 4.323-18.233 10.404-23.848 18.18-5.614 7.776-9.364 18.135-11.23 31.113-1.05 7.83-1.578 26.367-1.578 55.605 0 15.319-1.99 25.203-5.963 29.588-3.973 4.386-12.054 6.55-24.207 6.55h-5.436v27.532h9.82c10.064 0 17.31-.636 21.759-1.927 6.556-1.875 11.929-4.567 16.144-8.127 4.206-3.561 7.748-8.304 10.61-14.205 2.86-5.91 4.825-13.866 5.874-23.803.583-6.198.933-19.06 1.05-38.594.125-19.534 1.113-33.274 2.988-41.283 1.874-8.018 5.64-14.396 11.318-19.069 5.668-4.672 13.005-7.13 22.01-7.363V241.61c-9.005-.233-16.352-2.69-22.02-7.363-5.677-4.682-9.444-10.995-11.318-19.004-1.875-8.027-2.861-22.558-2.987-43.607-.116-21.05-.905-36.198-2.367-45.436s-4.647-16.897-9.562-22.978c-4.906-6.081-11.103-10.413-18.592-12.987-5.14-1.874-13.444-2.806-24.906-2.806h-9.82zm101.563 0v27.533h5.435c11.113 0 18.574 1.553 22.368 4.656 3.793 3.103 6.107 8.564 6.923 16.403.592 4.448.88 18.073.88 40.88 0 25.14 2.753 43.023 8.242 53.606 5.497 10.583 14.977 19.058 28.421 25.498-10.287 4.323-18.24 10.404-23.855 18.18-5.614 7.776-9.356 18.135-11.23 31.113-1.05 7.83-1.579 26.367-1.579 55.605 0 15.319-1.991 25.203-5.964 29.588-3.974 4.386-12.044 6.55-24.206 6.55h-5.435v27.532h9.83c10.054 0 17.31-.636 21.758-1.927 6.547-1.875 11.92-4.567 16.135-8.127 4.215-3.561 7.758-8.304 10.619-14.205 2.86-5.91 4.825-13.866 5.875-23.803.583-6.198.932-19.06 1.049-38.594.116-19.534 1.113-33.274 2.978-41.283 1.875-8.018 5.65-14.396 11.318-19.069 5.678-4.672 13.013-7.13 22.018-7.363V241.61c-9.005-.233-16.341-2.69-22.027-7.363-5.669-4.682-9.444-10.995-11.319-19.004-1.865-8.027-2.862-22.558-2.978-43.607-.117-21.05-.905-36.198-2.367-45.436s-4.646-16.897-9.561-22.978c-4.915-6.081-11.103-10.413-18.592-12.987-5.139-1.874-13.453-2.806-24.906-2.806h-9.83z"/>
</svg>